<svg xmlns="http://www.w3.org/2000/svg" xmlns:xlink="http://www.w3.org/1999/xlink" width="975" height="398"><defs><path d="M792.545 209.777l-48.601 160.848-77.284-24.007-5.038-1.566-12.12 40.197-184.992-53.495-72.584-20.99-146.24-42.288-74.134 18.25-97.371 22.886-54.056-200.419-17.707-65.78 78.78-17.856 95.8-23.276 158.088 2.485 111.486 33.169 111.564 33.252L811.65 146.55l-.053.174 151.266 44.971-52.831 177.717-104.607-31.17-47.247-14.078 34.367-114.386zm0 0l19.052-63.054-.098-.03-18.954 63.084zm-660.796 3.712l13.471-3.031-13.47 3.031z" id="b"/><filter x="-.8%" y="-1.9%" width="102.5%" height="106.4%" filterUnits="objectBoundingBox" id="a"><feMorphology radius="2" operator="dilate" in="SourceAlpha" result="shadowSpreadOuter1"/><feOffset dx="4.9" dy="6.3" in="shadowSpreadOuter1" result="shadowOffsetOuter1"/><feGaussianBlur stdDeviation="2" in="shadowOffsetOuter1" result="shadowBlurOuter1"/><feComposite in="shadowBlurOuter1" in2="SourceAlpha" operator="out" result="shadowBlurOuter1"/><feColorMatrix values="0 0 0 0 0 0 0 0 0 0 0 0 0 0 0 0 0 0 0.2 0" in="shadowBlurOuter1"/></filter></defs><g fill="none" fill-rule="evenodd"><g transform="translate(1)"><use fill="#000" filter="url(#a)" xlink:href="#b"/><use stroke="#003A70" stroke-width="4" fill="#DAD9D7" xlink:href="#b"/></g><path d="M806.425 338.242l21.453-70.6-47.393-13.932-21.307 70.453L812.65 146.55l150.982 44.918-52.6 177.944-104.607-31.17z" stroke="#003A70"/><path stroke="#003A70" d="M806.425 338.242l-47.247-14.079 21.307-70.453 47.393 13.932zm-340.915-6.488l184.992 53.495 12.12-40.197 5.039 1.566 36.121-114.483 76.637 21.473 32.231-107.06-253.514-75.36-33.333 100.43-12.1-3.68z"/><path stroke="#003A70" d="M392.925 310.765l72.584 20.989 48.193-163.817 12.1 3.68 33.334-100.43-111.564-33.252-38.887 108.014 30.799 9.85z"/><path stroke="#003A70" d="M246.686 268.476l146.24 42.288L439.483 155.8l-30.8-9.85 38.888-108.014L336.086 4.767 177.998 2.28zM82.198 25.557l95.8-23.276 68.688 266.195-74.134 18.25-26.332-76.268-13.485 3.035z"/><path d="M3.39 43.435l78.808-17.878 50.556 187.949 13.466-3.048 26.332 76.268-97.37 22.886L3.39 43.435z" stroke="#003A70"/><path stroke="#003A70" d="M21.125 109.193L3.39 43.435l78.808-17.877 17.37 64.576zM667.66 346.618l77.284 24.007 35.475-117.017-76.636-21.473z"/><path stroke="#003A70" fill="#003A70" d="M305.213 120.924h28.548v28.42h-28.548z"/><text font-family="BebasNeue, Bebas Neue" font-size="21.411" fill="#FFF" transform="translate(1)"><tspan x="313" y="143.58">8</tspan></text><path stroke="#003A70" fill="#003A70" d="M468.213 102.02h28.548v28.422h-28.548z"/><text font-family="BebasNeue, Bebas Neue" font-size="21.411" fill="#FFF" transform="translate(1)"><tspan x="477" y="124.677">7</tspan></text><path stroke="#003A70" fill="#003A70" d="M586.213 219.42h28.548v28.42h-28.548z"/><text font-family="BebasNeue, Bebas Neue" font-size="21.411" fill="#FFF" transform="translate(1)"><tspan x="595" y="242.075">6</tspan></text><path stroke="#003A70" fill="#003A70" d="M712.213 279.113h28.548v28.421h-28.548z"/><text font-family="BebasNeue, Bebas Neue" font-size="21.411" fill="#FFF" transform="translate(1)"><tspan x="720" y="301.77">5</tspan></text><path stroke="#003A70" fill="#003A70" d="M779.213 282.098h28.548v28.421h-28.548z"/><text font-family="BebasNeue, Bebas Neue" font-size="21.411" fill="#FFF" transform="translate(1)"><tspan x="787" y="304.754">4</tspan></text><path stroke="#003A70" fill="#003A70" d="M870.213 215.44h28.548v28.42h-28.548z"/><text font-family="BebasNeue, Bebas Neue" font-size="21.411" fill="#FFF" transform="translate(1)"><tspan x="878" y="238.096">3</tspan></text><path stroke="#003A70" fill="#003A70" d="M37.213 53.27h28.548v28.422H37.213z"/><text font-family="BebasNeue, Bebas Neue" font-size="21.411" fill="#FFF" transform="translate(1)"><tspan x="42.021" y="75.927">11</tspan></text><path stroke="#003A70" fill="#003A70" d="M152.213 129.878h28.548v28.42h-28.548z"/><text font-family="BebasNeue, Bebas Neue" font-size="21.411" fill="#FFF" transform="translate(1)"><tspan x="161" y="152.534">9</tspan></text><path stroke="#003A70" fill="#003A70" d="M94.213 241.307h28.548v28.421H94.213z"/><text font-family="BebasNeue, Bebas Neue" font-size="21.411" fill="#FFF" transform="translate(1)"><tspan x="98" y="262.968">10</tspan></text></g></svg>