<svg xmlns="http://www.w3.org/2000/svg" xmlns:xlink="http://www.w3.org/1999/xlink" width="975" height="398"><defs><filter id="a" width="102.5%" height="106.4%" x="-.8%" y="-1.9%" filterUnits="objectBoundingBox"><feMorphology in="SourceAlpha" operator="dilate" radius="2" result="shadowSpreadOuter1"/><feOffset dx="4.9" dy="6.3" in="shadowSpreadOuter1" result="shadowOffsetOuter1"/><feGaussianBlur in="shadowOffsetOuter1" result="shadowBlurOuter1" stdDeviation="2"/><feComposite in="shadowBlurOuter1" in2="SourceAlpha" operator="out" result="shadowBlurOuter1"/><feColorMatrix in="shadowBlurOuter1" values="0 0 0 0 0 0 0 0 0 0 0 0 0 0 0 0 0 0 0.2 0"/></filter><path id="b" d="m792.545 209.777-48.601 160.848-77.284-24.007-5.038-1.566-12.12 40.197-184.992-53.495-72.584-20.99-146.24-42.288-74.134 18.25-97.371 22.886-54.056-200.419-17.707-65.78 78.78-17.856 95.8-23.276 158.088 2.485 111.486 33.169 111.564 33.252L811.65 146.55l-.053.174 151.266 44.971-52.831 177.717-104.607-31.17-47.247-14.078 34.367-114.386Zm0 0 19.052-63.054-.098-.03Zm-660.796 3.712 13.471-3.031Z"/></defs><g fill="none" fill-rule="evenodd"><g transform="translate(1)"><use xlink:href="#b" fill="#000" filter="url(#a)"/><use xlink:href="#b" fill="#dad9d7" stroke="#003a70" stroke-width="4"/></g><path stroke="#003a70" d="m806.425 338.242 21.453-70.6-47.393-13.932-21.307 70.453L812.65 146.55l150.982 44.918-52.6 177.944Z"/><path stroke="#003a70" d="m806.425 338.242-47.247-14.079 21.307-70.453 47.393 13.932Zm-340.915-6.488 184.992 53.495 12.12-40.197 5.039 1.566 36.121-114.483 76.637 21.473 32.231-107.06-253.514-75.36-33.333 100.43-12.1-3.68Z"/><path stroke="#003a70" d="m392.925 310.765 72.584 20.989 48.193-163.817 12.1 3.68 33.334-100.43-111.564-33.252-38.887 108.014 30.799 9.85Z"/><path stroke="#003a70" d="m246.686 268.476 146.24 42.288L439.483 155.8l-30.8-9.85 38.888-108.014L336.086 4.767 177.998 2.28ZM82.198 25.557l95.8-23.276 68.688 266.195-74.134 18.25-26.332-76.268-13.485 3.035Z"/><path stroke="#003a70" d="m3.39 43.435 78.808-17.878 50.556 187.949 13.466-3.048 26.332 76.268-97.37 22.886Z"/><path stroke="#003a70" d="M21.125 109.193 3.39 43.435l78.808-17.877 17.37 64.576ZM667.66 346.618l77.284 24.007 35.475-117.017-76.636-21.473Z"/><path fill="#003a70" stroke="#003a70" d="M305.213 120.924h28.548v28.42h-28.548Z"/><text fill="#fff" font-family="BebasNeue, Bebas Neue" font-size="21.411" transform="translate(1)"><tspan x="313" y="143.58">8</tspan></text><path fill="#003a70" stroke="#003a70" d="M468.213 102.02h28.548v28.422h-28.548Z"/><text fill="#fff" font-family="BebasNeue, Bebas Neue" font-size="21.411" transform="translate(1)"><tspan x="477" y="124.677">7</tspan></text><path fill="#003a70" stroke="#003a70" d="M586.213 219.42h28.548v28.42h-28.548Z"/><text fill="#fff" font-family="BebasNeue, Bebas Neue" font-size="21.411" transform="translate(1)"><tspan x="595" y="242.075">6</tspan></text><path fill="#003a70" stroke="#003a70" d="M712.213 279.113h28.548v28.421h-28.548Z"/><text fill="#fff" font-family="BebasNeue, Bebas Neue" font-size="21.411" transform="translate(1)"><tspan x="720" y="301.77">5</tspan></text><path fill="#003a70" stroke="#003a70" d="M779.213 282.098h28.548v28.421h-28.548Z"/><text fill="#fff" font-family="BebasNeue, Bebas Neue" font-size="21.411" transform="translate(1)"><tspan x="787" y="304.754">4</tspan></text><path fill="#003a70" stroke="#003a70" d="M870.213 215.44h28.548v28.42h-28.548Z"/><text fill="#fff" font-family="BebasNeue, Bebas Neue" font-size="21.411" transform="translate(1)"><tspan x="878" y="238.096">3</tspan></text><path fill="#003a70" stroke="#003a70" d="M37.213 53.27h28.548v28.422H37.213Z"/><text fill="#fff" font-family="BebasNeue, Bebas Neue" font-size="21.411" transform="translate(1)"><tspan x="42.021" y="75.927">11</tspan></text><path fill="#003a70" stroke="#003a70" d="M152.213 129.878h28.548v28.42h-28.548Z"/><text fill="#fff" font-family="BebasNeue, Bebas Neue" font-size="21.411" transform="translate(1)"><tspan x="161" y="152.534">9</tspan></text><path fill="#003a70" stroke="#003a70" d="M94.213 241.307h28.548v28.421H94.213Z"/><text fill="#fff" font-family="BebasNeue, Bebas Neue" font-size="21.411" transform="translate(1)"><tspan x="98" y="262.968">10</tspan></text></g></svg>