<svg xmlns="http://www.w3.org/2000/svg" xmlns:xlink="http://www.w3.org/1999/xlink" width="64" height="40"><defs><path id="a" d="M0 .326h18.59V40H0z"/><path id="c" d="M.283.326h39.674V40H.283z"/></defs><g fill="none" fill-rule="evenodd"><g transform="translate(0 -.326)"><mask id="b" fill="#fff"><use xlink:href="#a"/></mask><path d="M9.862 17.896h8.728v12.13c0 6.347-3.174 9.974-9.295 9.974S0 36.373 0 30.025V10.301C0 3.954 3.174.326 9.295.326c6.12 0 9.295 3.628 9.295 9.975v3.401h-5.895V9.905c0-2.834-1.246-3.91-3.23-3.91-1.983 0-3.23 1.076-3.23 3.91v20.516c0 2.834 1.247 3.854 3.23 3.854 1.984 0 3.23-1.02 3.23-3.854v-6.857H9.862v-5.668z" fill="#FEFEFE" mask="url(#b)"/></g><g transform="translate(24 -.326)"><mask id="d" fill="#fff"><use xlink:href="#c"/></mask><path d="M34.29 11.454L28.224 34.35H21.99l6.007-22.67h-6.576V6.014H34.29v5.44zm-15.472 0L12.753 34.35H6.52l6.008-22.67H5.951V6.014h12.867v5.44zM.283 40h39.674V.326H.283V40z" fill="#FEFEFE" mask="url(#d)"/></g></g></svg>