<svg xmlns="http://www.w3.org/2000/svg" xmlns:xlink="http://www.w3.org/1999/xlink" width="248" height="120"><defs><path id="a" d="M0 .952h37.471V80.76H0Z"/><path id="c" d="M1.674.952h43.982v79.807H1.674Z"/><path id="e" d="M.954.952h34.274V80.76H.954Z"/><path id="g" d="M0 120.049h247.864V1.834H0Z"/></defs><g fill="none" fill-rule="evenodd" transform="translate(0 -1)"><g transform="translate(0 .882)"><mask id="b" fill="#fff"><use xlink:href="#a"/></mask><path fill="#fefefe" d="M19.878 36.295h17.593v24.398c0 12.768-6.396 20.066-18.736 20.066C6.398 80.76 0 73.461 0 60.693V21.018C0 8.248 6.398.952 18.735.952c12.34 0 18.736 7.295 18.736 20.066v6.838H25.59V20.22c0-5.7-2.513-7.867-6.51-7.867-4 0-6.512 2.167-6.512 7.867v41.27c0 5.701 2.513 7.753 6.512 7.753 3.997 0 6.51-2.052 6.51-7.753V47.697h-5.711Z" mask="url(#b)"/></g><g transform="translate(38.578 .882)"><mask id="d" fill="#fff"><use xlink:href="#c"/></mask><path fill="#fefefe" d="M16.982 55.448h12.11l-5.942-40.36h-.227ZM45.656 80.76h-12.68l-2.17-14.48H15.382l-2.171 14.48H1.674L14.469.951h18.394l12.793 79.808Z" mask="url(#d)"/></g><path fill="#fefefe" d="M78.256 1.834h38.842v11.401H103.96v68.406H91.394V13.235H78.256Z"/><g transform="translate(121.244 .882)"><mask id="f" fill="#fff"><use xlink:href="#e"/></mask><path fill="#fefefe" d="M13.521 34.584h17.252v11.403H13.52v23.371h21.707V80.76H.954V.95h34.274v11.402H13.52Z" mask="url(#f)"/></g><path fill="#fefefe" d="m236.44 24.217-12.223 46.06h-12.568l12.11-45.604h-13.256V13.272h25.937Zm-31.183 0-12.224 46.06h-12.567l12.11-45.604h-13.257V13.272h25.938ZM167.895 81.64h79.968V1.834h-79.968ZM43.603 108.16q-1.578-1.71-5.773-3.203-2.5-.891-3.713-1.63-1.212-.736-1.723-1.62-.51-.883-.51-2.266 0-1.875 1.386-2.93 1.385-1.057 3.849-1.058 3.12 0 6.42 1.384l.968-2.695q-3.339-1.455-7.315-1.455-3.813 0-6.13 1.82-2.316 1.82-2.317 4.899 0 2.929 1.597 4.748 1.595 1.823 5.318 3.152 2.662.946 3.966 1.692 1.305.747 1.861 1.63.557.882.557 2.266 0 2.095-1.57 3.268-1.567 1.174-4.669 1.174-1.898.001-3.83-.4a19 19 0 0 1-3.575-1.093v2.985q2.552 1.22 7.295 1.22 4.378 0 6.933-1.966t2.553-5.478q0-2.73-1.578-4.444m39.015-15.091v17.33q0 3.351-1.824 5.145-1.825 1.792-5.199 1.791-3.54 0-5.364-1.782-1.824-1.785-1.824-5.115V93.069h-3.101v17.149q0 4.587 2.636 7.209 2.638 2.62 7.45 2.621 4.818 0 7.571-2.603 2.756-2.602 2.756-7.154V93.07Z"/><mask id="h" fill="#fff"><use xlink:href="#g"/></mask><path fill="#fefefe" d="M107.724 119.686h3.1V93.07h-3.1Zm33.567-23.869h8.447V93.07h-19.995v2.748h8.447v23.868h3.101Zm42.271 21.101h-11.766v-9.795h11.055v-2.73h-11.055v-8.576h11.766v-2.748h-14.867v26.616h14.867Zm34.325-8.758q-1.576-1.71-5.774-3.203-2.498-.891-3.713-1.63-1.213-.736-1.723-1.62-.51-.883-.51-2.266 0-1.875 1.387-2.93 1.385-1.057 3.848-1.058 3.12 0 6.42 1.384l.969-2.695q-3.34-1.455-7.315-1.455-3.814 0-6.13 1.82-2.317 1.82-2.317 4.899 0 2.929 1.596 4.748 1.596 1.823 5.319 3.152 2.662.946 3.966 1.692 1.305.747 1.86 1.63.558.882.557 2.266.001 2.095-1.569 3.268-1.569 1.174-4.67 1.174-1.896.001-3.83-.4a19 19 0 0 1-3.574-1.093v2.985q2.55 1.22 7.296 1.22 4.377 0 6.931-1.966t2.554-5.478q0-2.73-1.578-4.444" mask="url(#h)"/></g></svg>