<svg xmlns="http://www.w3.org/2000/svg" xmlns:xlink="http://www.w3.org/1999/xlink" width="248" height="120"><defs><path id="a" d="M0 .952h37.471V80.76H0z"/><path id="c" d="M1.674.952h43.982v79.807H1.674z"/><path id="e" d="M.954.952h34.274V80.76H.954z"/><path id="g" d="M0 120.049h247.864V1.834H0z"/></defs><g transform="translate(0 -1)" fill="none" fill-rule="evenodd"><g transform="translate(0 .882)"><mask id="b" fill="#fff"><use xlink:href="#a"/></mask><path d="M19.878 36.295h17.593v24.398c0 12.768-6.396 20.066-18.736 20.066C6.398 80.76 0 73.461 0 60.693V21.018C0 8.248 6.398.952 18.735.952c12.34 0 18.736 7.295 18.736 20.066v6.838H25.59V20.22c0-5.7-2.513-7.867-6.51-7.867-4 0-6.512 2.167-6.512 7.867v41.27c0 5.701 2.513 7.753 6.512 7.753 3.997 0 6.51-2.052 6.51-7.753V47.697h-5.711V36.295z" fill="#FEFEFE" mask="url(#b)"/></g><g transform="translate(38.578 .882)"><mask id="d" fill="#fff"><use xlink:href="#c"/></mask><path d="M16.982 55.448h12.11l-5.942-40.36h-.227l-5.941 40.36zM45.656 80.76h-12.68l-2.17-14.48H15.382l-2.171 14.48H1.674L14.469.951h18.394l12.793 79.808z" fill="#FEFEFE" mask="url(#d)"/></g><path fill="#FEFEFE" d="M78.256 1.834h38.842v11.401H103.96v68.406H91.394V13.235H78.256z"/><g transform="translate(121.244 .882)"><mask id="f" fill="#fff"><use xlink:href="#e"/></mask><path fill="#FEFEFE" mask="url(#f)" d="M13.521 34.584h17.252v11.403H13.52v23.371h21.707V80.76H.954V.95h34.274v11.402H13.52z"/></g><path d="M236.44 24.217l-12.223 46.06h-12.568l12.11-45.604h-13.256V13.272h25.937v10.945zm-31.183 0l-12.224 46.06h-12.567l12.11-45.604h-13.257V13.272h25.938v10.945zM167.895 81.64h79.968V1.834h-79.968V81.64zM43.603 108.16c-1.052-1.14-2.976-2.207-5.773-3.203-1.667-.594-2.903-1.138-3.713-1.63-.808-.491-1.383-1.03-1.723-1.62-.34-.589-.51-1.344-.51-2.266 0-1.249.462-2.228 1.386-2.93.924-.704 2.206-1.058 3.849-1.058 2.08 0 4.22.462 6.42 1.384l.968-2.695c-2.226-.97-4.664-1.455-7.315-1.455-2.542 0-4.585.606-6.13 1.82-1.543 1.214-2.317 2.845-2.317 4.899 0 1.952.533 3.536 1.597 4.748 1.063 1.216 2.836 2.266 5.318 3.152 1.775.63 3.097 1.195 3.966 1.692.87.498 1.49 1.041 1.861 1.63.371.588.557 1.343.557 2.266 0 1.397-.524 2.486-1.57 3.268-1.044.783-2.602 1.174-4.669 1.174-1.266 0-2.542-.132-3.83-.4a19.177 19.177 0 0 1-3.575-1.093v2.985c1.701.814 4.133 1.22 7.295 1.22 2.919 0 5.23-.655 6.933-1.966 1.703-1.31 2.553-3.137 2.553-5.478 0-1.82-.525-3.302-1.578-4.444m39.015-15.091v17.33c0 2.235-.608 3.948-1.824 5.145-1.216 1.195-2.95 1.791-5.199 1.791-2.359 0-4.148-.594-5.364-1.782-1.216-1.19-1.824-2.895-1.824-5.115V93.069h-3.101v17.149c0 3.058.878 5.461 2.636 7.209 1.758 1.747 4.242 2.621 7.45 2.621 3.212 0 5.736-.867 7.571-2.603 1.837-1.734 2.756-4.12 2.756-7.154V93.07h-3.101z" fill="#FEFEFE"/><mask id="h" fill="#fff"><use xlink:href="#g"/></mask><path fill="#FEFEFE" mask="url(#h)" d="M107.724 119.686h3.1V93.07h-3.1zm33.567-23.869h8.447V93.07h-19.995v2.748h8.447v23.868h3.101zm42.271 21.101h-11.766v-9.795h11.055v-2.73h-11.055v-8.576h11.766v-2.748h-14.867v26.616h14.867zm34.325-8.758c-1.05-1.14-2.976-2.207-5.774-3.203-1.666-.594-2.902-1.138-3.713-1.63-.808-.491-1.383-1.03-1.723-1.62-.34-.589-.51-1.344-.51-2.266 0-1.249.463-2.228 1.387-2.93.924-.704 2.206-1.058 3.848-1.058 2.08 0 4.22.462 6.42 1.384l.969-2.695c-2.227-.97-4.664-1.455-7.315-1.455-2.543 0-4.586.606-6.13 1.82-1.544 1.214-2.317 2.845-2.317 4.899 0 1.952.533 3.536 1.596 4.748 1.064 1.216 2.837 2.266 5.319 3.152 1.774.63 3.097 1.195 3.966 1.692.87.498 1.49 1.041 1.86 1.63.372.588.557 1.343.557 2.266 0 1.397-.521 2.486-1.569 3.268-1.045.783-2.603 1.174-4.67 1.174-1.265 0-2.54-.132-3.83-.4a19.177 19.177 0 0 1-3.574-1.093v2.985c1.7.814 4.133 1.22 7.296 1.22 2.918 0 5.229-.655 6.931-1.966 1.703-1.31 2.554-3.137 2.554-5.478 0-1.82-.525-3.302-1.578-4.444"/></g></svg>