<svg xmlns="http://www.w3.org/2000/svg" width="346.667" height="346.667" viewBox="0 0 260 260"><path d="M32 51.3C16.5 53.2 6.2 63.1 3.2 79c-.4 1.9-.7 25.5-.7 52.5 0 49.8.1 51.4 3.8 59.5 2.6 5.8 7.9 11 14.5 14.2 6.4 3.2 7 3.3 18.7 3.2 10.7 0 12.6-.3 17.5-2.6 10-4.7 15.8-12.5 18.3-24.5.8-3.8 1.2-15.8 1.2-33.3v-27.3l-16.8-.1c-9.3-.1-17.1.3-17.4.7-.8 1.3-.7 20.6.1 21.4.4.5 2.9.8 5.4.8h4.7v17.1c0 19.2-.5 21.2-6.3 24-7.3 3.4-15.7.2-17.8-6.9-.6-1.8-1-22.6-.9-49.2.1-43.2.2-46.2 2-49.2 2.4-4.1 5.5-5.7 10.9-5.6 9.3.2 12.3 4.8 12.5 19.8.1 5.5.6 10.2 1.1 10.5 1.1.7 20.5.4 21.7-.3 1.1-.7 1-18.2-.2-24.7C71.9 58.7 55.7 48.3 32 51.3M99 130v79.5h158.5l.1-79.5.2-79.5H99Zm73.7-44.9c.1 9.3-.3 13.1-2.3 20.4-1.3 4.9-6 22.7-10.5 39.5-4.4 16.8-8.8 33-9.7 36l-1.7 5.5-11 .1c-6 0-11.5-.1-12.1-.3-.7-.3.3-5.5 2.7-14.6 9.8-37.5 19-72.4 19.5-73.9.5-1.6-.7-1.8-12.8-2l-13.3-.3v-21l3-.5c1.6-.3 13.1-.4 25.5-.4l22.5.2Zm60.8-11.2c.7.1 1 4.4.9 11.8-.1 10.9-.5 13.4-5.3 31.3-2.9 10.7-8.2 30.5-11.7 44-3.6 13.4-6.9 24.7-7.4 25-.8.5-23 .6-23.7.1-.1-.1 3.9-15.8 8.3-32.1 1.5-5.2 2.8-10.4 3-11.5s3.1-11.9 6.3-24l5.8-22-13.1-.5-13.1-.5V85c0-9.3.2-10.6 1.8-11 1.4-.4 42.8-.4 48.2-.1"/></svg>