<?xml version="1.0" encoding="UTF-8"?>
<svg width="975px" height="398px" viewBox="0 0 975 398" version="1.1" xmlns="http://www.w3.org/2000/svg" xmlns:xlink="http://www.w3.org/1999/xlink">
    <!-- Generator: sketchtool 49.3 (51167) - http://www.bohemiancoding.com/sketch -->
    <title>AD0B0A15-94B1-4CF2-B9A1-BA11B4E2B292</title>
    <desc>Created with sketchtool.</desc>
    <defs>
        <path d="M792.545152,209.777015 L743.943952,370.624674 L666.660388,346.617708 L661.621588,345.05224 L649.502305,385.24936 L464.509546,331.753951 L391.925632,310.764431 L245.68609,268.47573 L171.551776,286.726265 L74.180842,309.612365 L20.125177,109.193047 L2.417671,43.4137432 L81.197371,25.5574999 L176.998525,2.28139821 L335.08603,4.7664912 L446.572387,37.9349946 L558.136264,71.1873484 L811.64992,146.549002 L811.597452,146.722646 L962.863339,191.694468 L910.031521,369.410597 L805.425064,338.241634 L758.177593,324.163341 L792.545152,209.777015 Z M792.545152,209.777015 L811.597452,146.722646 L811.498756,146.693303 L792.545152,209.777015 Z M131.749132,213.489342 L145.22017,210.457856 L131.749132,213.489342 Z" id="path-1"></path>
        <filter x="-0.8%" y="-1.9%" width="102.5%" height="106.4%" filterUnits="objectBoundingBox" id="filter-2">
            <feMorphology radius="2" operator="dilate" in="SourceAlpha" result="shadowSpreadOuter1"></feMorphology>
            <feOffset dx="4.9" dy="6.3" in="shadowSpreadOuter1" result="shadowOffsetOuter1"></feOffset>
            <feGaussianBlur stdDeviation="2" in="shadowOffsetOuter1" result="shadowBlurOuter1"></feGaussianBlur>
            <feComposite in="shadowBlurOuter1" in2="SourceAlpha" operator="out" result="shadowBlurOuter1"></feComposite>
            <feColorMatrix values="0 0 0 0 0   0 0 0 0 0   0 0 0 0 0  0 0 0 0.2 0" type="matrix" in="shadowBlurOuter1"></feColorMatrix>
        </filter>
    </defs>
    <g id="Gate-77-Homepage" stroke="none" stroke-width="1" fill="none" fill-rule="evenodd">
        <g id="Desktop-Landing" transform="translate(-477.000000, -1580.000000)">
            <g id="Overview" transform="translate(0.000000, 927.000000)">
                <g id="Floorplan" transform="translate(478.000000, 653.000000)">
                    <g id="Combined-shape-228">
                        <use fill="black" fill-opacity="1" filter="url(#filter-2)" xlink:href="#path-1"></use>
                        <use stroke="#003A70" stroke-width="4" fill="#DAD9D7" fill-rule="evenodd" xlink:href="#path-1"></use>
                    </g>
                    <path d="M805.425192,338.241555 L826.877543,267.641547 L779.48533,253.710296 L758.17778,324.163432 L811.650012,146.548887 L962.63203,191.467332 L910.031119,369.410566 L805.425192,338.241555 Z" id="Combined-shape-192" stroke="#003A70"></path>
                    <polygon id="S04" stroke="#003A70" points="805.425088 338.241663 758.177736 324.163497 779.485268 253.710329 826.877598 267.641508"></polygon>
                    <polygon id="S06" stroke="#003A70" points="464.509408 331.754197 649.502304 385.249424 661.621664 345.052471 666.660544 346.617891 702.782432 232.134623 779.418816 253.608295 811.650048 146.548756 558.13648 71.1873086 524.802784 171.617132 512.70208 167.937104"></polygon>
                    <polygon id="S07" stroke="#003A70" points="391.92525 310.764666 464.5093 331.75398 512.70192 167.937195 524.80286 171.616973 558.13646 71.1875733 446.57226 37.935106 407.68493 145.948658 438.484 155.798982"></polygon>
                    <polygon id="S08" stroke="#003A70" points="245.685972 268.475592 391.925252 310.7645 438.484154 155.798995 407.68491 145.948724 446.57236 37.9350026 335.086144 4.76660064 176.998282 2.28114949"></polygon>
                    <polygon id="S09" stroke="#003A70" points="81.197676 25.5574283 176.998199 2.28121117 245.686052 268.475859 171.551836 286.726024 145.220115 210.457852 131.735436 213.492526"></polygon>
                    <path d="M2.389709,43.4350182 L81.19761,25.5574511 L131.754092,213.505809 L145.220066,210.457735 L171.551877,286.726288 L74.181249,309.612288 L2.389709,43.4350182 Z" id="Combined-shape-193" stroke="#003A70"></path>
                    <polygon id="S11" stroke="#003A70" points="20.125462 109.19319 2.389761 43.4350172 81.197637 25.5575914 98.568223 90.1340245"></polygon>
                    <polygon id="S05" stroke="#003A70" points="666.660581 346.617733 743.943761 370.624567 779.418746 253.608394 702.782576 232.134556"></polygon>
                    <polygon id="SuiteBox" stroke="#003A70" fill="#003A70" points="304.21331 120.923898 332.761412 120.923898 332.761412 149.344815 304.21331 149.344815"></polygon>
                    <text id="8" font-family="BebasNeue, Bebas Neue" font-size="21.4110467" font-weight="normal" fill="#FFFFFF">
                        <tspan x="313" y="143.58002">8</tspan>
                    </text>
                    <polygon id="SuiteBox-copy-4" stroke="#003A70" fill="#003A70" points="467.21331 102.020606 495.761412 102.020606 495.761412 130.441819 467.21331 130.441819"></polygon>
                    <text id="7" font-family="BebasNeue, Bebas Neue" font-size="21.4110467" font-weight="normal" fill="#FFFFFF">
                        <tspan x="477" y="124.67686">7</tspan>
                    </text>
                    <polygon id="SuiteBox-copy-5" stroke="#003A70" fill="#003A70" points="585.213277 219.419179 613.761346 219.419179 613.761346 247.840392 585.213277 247.840392"></polygon>
                    <text id="6" font-family="BebasNeue, Bebas Neue" font-size="21.4110467" font-weight="normal" fill="#FFFFFF">
                        <tspan x="595" y="242.075433">6</tspan>
                    </text>
                    <polygon id="SuiteBox-copy-6" stroke="#003A70" fill="#003A70" points="711.213442 279.113401 739.76128 279.113401 739.76128 307.534319 711.213442 307.534319"></polygon>
                    <text id="5" font-family="BebasNeue, Bebas Neue" font-size="21.4110467" font-weight="normal" fill="#FFFFFF">
                        <tspan x="720" y="301.769623">5</tspan>
                    </text>
                    <polygon id="SuiteBox-copy-7" stroke="#003A70" fill="#003A70" points="778.213277 282.098078 806.761379 282.098078 806.761379 310.518995 778.213277 310.518995"></polygon>
                    <text id="4" font-family="BebasNeue, Bebas Neue" font-size="21.4110467" font-weight="normal" fill="#FFFFFF">
                        <tspan x="787" y="304.754332">4</tspan>
                    </text>
                    <polygon id="SuiteBox-copy-8" stroke="#003A70" fill="#003A70" points="869.213343 215.439665 897.761445 215.439665 897.761445 243.860582 869.213343 243.860582"></polygon>
                    <text id="3" font-family="BebasNeue, Bebas Neue" font-size="21.4110467" font-weight="normal" fill="#FFFFFF">
                        <tspan x="878" y="238.095821">3</tspan>
                    </text>
                    <polygon id="SuiteBox-copy" stroke="#003A70" fill="#003A70" points="36.213211 53.2703513 64.761313 53.2703513 64.761313 81.6915967 36.213211 81.6915967"></polygon>
                    <text id="11" font-family="BebasNeue, Bebas Neue" font-size="21.4110467" font-weight="normal" fill="#FFFFFF">
                        <tspan x="42.0212255" y="75.9266055">11</tspan>
                    </text>
                    <polygon id="SuiteBox-copy-2" stroke="#003A70" fill="#003A70" points="151.213277 129.87796 179.761346 129.87796 179.761346 158.298877 151.213277 158.298877"></polygon>
                    <text id="9" font-family="BebasNeue, Bebas Neue" font-size="21.4110467" font-weight="normal" fill="#FFFFFF">
                        <tspan x="161" y="152.534149">9</tspan>
                    </text>
                    <polygon id="SuiteBox-copy-3" stroke="#003A70" fill="#003A70" points="93.213376 241.307147 121.761478 241.307147 121.761478 269.728064 93.213376 269.728064"></polygon>
                    <text id="10" font-family="BebasNeue, Bebas Neue" font-size="21.4110467" font-weight="normal" fill="#FFFFFF">
                        <tspan x="98" y="262.9684">10</tspan>
                    </text>
                </g>
            </g>
        </g>
    </g>
</svg>