<?xml version="1.0" encoding="UTF-8"?>
<svg width="64px" height="40px" viewBox="0 0 64 40" version="1.1" xmlns="http://www.w3.org/2000/svg" xmlns:xlink="http://www.w3.org/1999/xlink">
    <!-- Generator: sketchtool 49.3 (51167) - http://www.bohemiancoding.com/sketch -->
    <title>133113B9-AB50-40AB-8B76-B48F8A8EF5D4</title>
    <desc>Created with sketchtool.</desc>
    <defs>
        <polygon id="path-1" points="0 0.3263 18.5899 0.3263 18.5899 40 0 40"></polygon>
        <polygon id="path-3" points="0.2832 0.326 39.957 0.326 39.957 39.9999 0.2832 39.9999"></polygon>
    </defs>
    <g id="Gate-77-Homepage" stroke="none" stroke-width="1" fill="none" fill-rule="evenodd">
        <g id="Desktop-Landing" transform="translate(-929.000000, -5154.000000)">
            <g id="Contact-Us" transform="translate(0.000000, 3678.000000)">
                <g id="brand/g77-icon-mark" transform="translate(929.000000, 1475.000000)">
                    <g id="Page-1">
                        <g id="Group-3" transform="translate(0.000000, 0.673600)">
                            <mask id="mask-2" fill="white">
                                <use xlink:href="#path-1"></use>
                            </mask>
                            <g id="Clip-2"></g>
                            <path d="M9.8619,17.8963 L18.5899,17.8963 L18.5899,30.0253 C18.5899,36.3733 15.4159,40.0003 9.2949,40.0003 C3.1739,40.0003 -0.0001,36.3733 -0.0001,30.0253 L-0.0001,10.3013 C-0.0001,3.9543 3.1739,0.3263 9.2949,0.3263 C15.4159,0.3263 18.5899,3.9543 18.5899,10.3013 L18.5899,13.7023 L12.6949,13.7023 L12.6949,9.9053 C12.6949,7.0713 11.4489,5.9943 9.4649,5.9943 C7.4819,5.9943 6.2349,7.0713 6.2349,9.9053 L6.2349,30.4213 C6.2349,33.2553 7.4819,34.2753 9.4649,34.2753 C11.4489,34.2753 12.6949,33.2553 12.6949,30.4213 L12.6949,23.5643 L9.8619,23.5643 L9.8619,17.8963 Z" id="Fill-1" fill="#FEFEFE" mask="url(#mask-2)"></path>
                        </g>
                        <g id="Group-6" transform="translate(24.000000, 0.673600)">
                            <mask id="mask-4" fill="white">
                                <use xlink:href="#path-3"></use>
                            </mask>
                            <g id="Clip-5"></g>
                            <path d="M34.2892,11.4539 L28.2252,34.3509 L21.9902,34.3509 L27.9972,11.6809 L21.4212,11.6809 L21.4212,6.0139 L34.2892,6.0139 L34.2892,11.4539 Z M18.8182,11.4539 L12.7532,34.3509 L6.5192,34.3509 L12.5272,11.6809 L5.9512,11.6809 L5.9512,6.0139 L18.8182,6.0139 L18.8182,11.4539 Z M0.2832,39.9999 L39.9572,39.9999 L39.9572,0.3259 L0.2832,0.3259 L0.2832,39.9999 Z" id="Fill-4" fill="#FEFEFE" mask="url(#mask-4)"></path>
                        </g>
                    </g>
                </g>
            </g>
        </g>
    </g>
</svg>