<?xml version="1.0" standalone="no"?>
<!DOCTYPE svg PUBLIC "-//W3C//DTD SVG 20010904//EN"
 "http://www.w3.org/TR/2001/REC-SVG-20010904/DTD/svg10.dtd">
<svg version="1.0" xmlns="http://www.w3.org/2000/svg"
 width="260.000000pt" height="260.000000pt" viewBox="0 0 260.000000 260.000000"
 preserveAspectRatio="xMidYMid meet">
<metadata>
Created by potrace 1.11, written by Peter Selinger 2001-2013
</metadata>
<g transform="translate(0.000000,260.000000) scale(0.100000,-0.100000)"
fill="#000000" stroke="none">
<path d="M320 2087 c-155 -19 -258 -118 -288 -277 -4 -19 -7 -255 -7 -525 0
-498 1 -514 38 -595 26 -58 79 -110 145 -142 64 -32 70 -33 187 -32 107 0 126
3 175 26 100 47 158 125 183 245 8 38 12 158 12 333 l0 273 -168 1 c-93 1
-171 -3 -174 -7 -8 -13 -7 -206 1 -214 4 -5 29 -8 54 -8 l47 0 0 -171 c0 -192
-5 -212 -63 -240 -73 -34 -157 -2 -178 69 -6 18 -10 226 -9 492 1 432 2 462
20 492 24 41 55 57 109 56 93 -2 123 -48 125 -198 1 -55 6 -102 11 -105 11 -7
205 -4 217 3 11 7 10 182 -2 247 -36 203 -198 307 -435 277z"/>
<path d="M990 1300 l0 -795 793 0 792 0 1 795 2 795 -794 0 -794 0 0 -795z
m737 449 c1 -93 -3 -131 -23 -204 -13 -49 -60 -227 -105 -395 -44 -168 -88
-330 -97 -360 l-17 -55 -110 -1 c-60 0 -115 1 -121 3 -7 3 3 55 27 146 98 375
190 724 195 739 5 16 -7 18 -128 20 l-133 3 0 105 0 105 30 5 c16 3 131 4 255
4 l225 -2 2 -113z m608 112 c7 -1 10 -44 9 -118 -1 -109 -5 -134 -53 -313 -29
-107 -82 -305 -117 -440 -36 -134 -69 -247 -74 -250 -8 -5 -230 -6 -237 -1 -1
1 39 158 83 321 15 52 28 104 30 115 2 11 31 119 63 240 l58 220 -131 5 -131
5 0 105 c0 93 2 106 18 110 14 4 428 4 482 1z"/>
</g>
</svg>
